<svg width="92" height="47" viewBox="0 0 92 47" fill="none" xmlns="http://www.w3.org/2000/svg">
<path d="M3.177 3.06C4.107 3.06 4.818 3.318 5.31 3.834C5.808 4.35 6.057 5.082 6.057 6.03C6.057 6.978 5.808 7.71 5.31 8.226C4.818 8.742 4.107 9 3.177 9H0.657V3.06H3.177ZM3.024 7.83C3.528 7.83 3.894 7.68 4.122 7.38C4.356 7.074 4.473 6.624 4.473 6.03C4.473 5.436 4.356 4.989 4.122 4.689C3.894 4.383 3.528 4.23 3.024 4.23H2.205V7.83H3.024ZM9.20496 9.09C8.70696 9.09 8.27496 8.997 7.90896 8.811C7.54896 8.625 7.26996 8.358 7.07196 8.01C6.87396 7.662 6.77496 7.242 6.77496 6.75C6.77496 6.258 6.87396 5.838 7.07196 5.49C7.26996 5.142 7.54596 4.875 7.89996 4.689C8.25996 4.503 8.67096 4.41 9.13296 4.41C9.60696 4.41 10.009 4.503 10.339 4.689C10.675 4.869 10.93 5.121 11.104 5.445C11.278 5.763 11.365 6.129 11.365 6.543C11.365 6.651 11.362 6.759 11.356 6.867C11.35 6.975 11.341 7.065 11.329 7.137H7.76496V6.318H10.654L9.92496 6.597C9.92496 6.237 9.85896 5.961 9.72696 5.769C9.60096 5.577 9.40296 5.481 9.13296 5.481C8.94096 5.481 8.77596 5.526 8.63796 5.616C8.50596 5.706 8.40396 5.847 8.33196 6.039C8.26596 6.231 8.23296 6.477 8.23296 6.777C8.23296 7.071 8.27196 7.311 8.34996 7.497C8.42796 7.677 8.53896 7.809 8.68296 7.893C8.82696 7.971 9.00096 8.01 9.20496 8.01C9.43296 8.01 9.61296 7.965 9.74496 7.875C9.88296 7.785 9.98496 7.659 10.051 7.497L11.275 7.902C11.191 8.16 11.044 8.379 10.834 8.559C10.63 8.733 10.384 8.865 10.096 8.955C9.81396 9.045 9.51696 9.09 9.20496 9.09ZM14.1109 9.09C13.6609 9.09 13.2409 9.018 12.8509 8.874C12.4669 8.724 12.1489 8.511 11.8969 8.235L12.6169 7.389C12.7669 7.581 12.9649 7.743 13.2109 7.875C13.4629 8.001 13.7419 8.064 14.0479 8.064C14.2339 8.064 14.3869 8.037 14.5069 7.983C14.6269 7.929 14.6869 7.845 14.6869 7.731C14.6869 7.647 14.6569 7.581 14.5969 7.533C14.5369 7.479 14.4169 7.434 14.2369 7.398L13.6069 7.272C13.0429 7.158 12.6409 6.99 12.4009 6.768C12.1669 6.54 12.0499 6.243 12.0499 5.877C12.0499 5.631 12.1249 5.397 12.2749 5.175C12.4249 4.947 12.6559 4.764 12.9679 4.626C13.2799 4.482 13.6789 4.41 14.1649 4.41C14.6209 4.41 15.0229 4.476 15.3709 4.608C15.7189 4.74 15.9949 4.932 16.1989 5.184L15.4699 6.012C15.3259 5.832 15.1399 5.691 14.9119 5.589C14.6839 5.487 14.4559 5.436 14.2279 5.436C14.0839 5.436 13.9609 5.451 13.8589 5.481C13.7629 5.505 13.6909 5.541 13.6429 5.589C13.5949 5.637 13.5709 5.697 13.5709 5.769C13.5709 5.847 13.6069 5.916 13.6789 5.976C13.7569 6.03 13.8979 6.078 14.1019 6.12L14.9209 6.282C15.3829 6.366 15.7159 6.519 15.9199 6.741C16.1239 6.963 16.2259 7.23 16.2259 7.542C16.2259 7.836 16.1479 8.1 15.9919 8.334C15.8359 8.568 15.6019 8.754 15.2899 8.892C14.9779 9.024 14.5849 9.09 14.1109 9.09ZM17.7847 3.978C17.4727 3.978 17.2447 3.921 17.1007 3.807C16.9627 3.687 16.8937 3.501 16.8937 3.249C16.8937 2.991 16.9627 2.805 17.1007 2.691C17.2447 2.571 17.4727 2.511 17.7847 2.511C18.0907 2.511 18.3157 2.571 18.4597 2.691C18.6037 2.805 18.6757 2.991 18.6757 3.249C18.6757 3.501 18.6037 3.687 18.4597 3.807C18.3157 3.921 18.0907 3.978 17.7847 3.978ZM18.5497 4.5V9H17.0197V4.5H18.5497ZM23.9948 3.294L24.1208 4.32C24.0848 4.308 24.0488 4.302 24.0128 4.302C23.9768 4.296 23.9408 4.293 23.9048 4.293C23.6408 4.293 23.4428 4.359 23.3108 4.491C23.1848 4.617 23.1218 4.776 23.1218 4.968L22.5818 4.77C22.5818 4.524 22.6268 4.287 22.7168 4.059C22.8068 3.831 22.9448 3.645 23.1308 3.501C23.3228 3.357 23.5628 3.285 23.8508 3.285C23.8688 3.285 23.8898 3.285 23.9138 3.285C23.9438 3.285 23.9708 3.288 23.9948 3.294ZM22.4468 8.001C22.9688 8.001 23.3678 8.112 23.6438 8.334C23.9258 8.55 24.0668 8.862 24.0668 9.27C24.0668 9.642 23.9648 9.951 23.7608 10.197C23.5568 10.443 23.2688 10.626 22.8968 10.746C22.5308 10.872 22.0958 10.935 21.5918 10.935C20.7758 10.935 20.1878 10.833 19.8278 10.629C19.4678 10.425 19.2878 10.149 19.2878 9.801C19.2878 9.549 19.3898 9.345 19.5938 9.189C19.7978 9.033 20.1368 8.949 20.6108 8.937L20.5748 9.081C20.2088 9.033 19.9358 8.925 19.7558 8.757C19.5758 8.589 19.4858 8.361 19.4858 8.073C19.4858 7.785 19.5998 7.551 19.8278 7.371C20.0558 7.191 20.3588 7.092 20.7368 7.074L21.2948 7.335H21.1508C20.9168 7.347 20.7518 7.386 20.6558 7.452C20.5598 7.518 20.5118 7.599 20.5118 7.695C20.5118 7.797 20.5538 7.875 20.6378 7.929C20.7218 7.977 20.8478 8.001 21.0158 8.001H22.4468ZM21.6008 9.945C21.8888 9.945 22.1258 9.924 22.3118 9.882C22.5038 9.846 22.6478 9.792 22.7438 9.72C22.8398 9.654 22.8878 9.576 22.8878 9.486C22.8878 9.396 22.8548 9.324 22.7888 9.27C22.7228 9.222 22.6028 9.198 22.4288 9.198H20.8178C20.7038 9.198 20.6108 9.228 20.5388 9.288C20.4728 9.348 20.4398 9.423 20.4398 9.513C20.4398 9.651 20.5418 9.756 20.7458 9.828C20.9498 9.906 21.2348 9.945 21.6008 9.945ZM21.6548 4.41C22.1108 4.41 22.5008 4.47 22.8248 4.59C23.1488 4.71 23.3948 4.884 23.5628 5.112C23.7368 5.334 23.8238 5.61 23.8238 5.94C23.8238 6.264 23.7368 6.54 23.5628 6.768C23.3948 6.996 23.1488 7.17 22.8248 7.29C22.5008 7.404 22.1108 7.461 21.6548 7.461C20.9408 7.461 20.3978 7.329 20.0258 7.065C19.6598 6.801 19.4768 6.426 19.4768 5.94C19.4768 5.61 19.5608 5.334 19.7288 5.112C19.9028 4.884 20.1518 4.71 20.4758 4.59C20.7998 4.47 21.1928 4.41 21.6548 4.41ZM21.6548 5.283C21.4568 5.283 21.2948 5.34 21.1688 5.454C21.0488 5.568 20.9888 5.73 20.9888 5.94C20.9888 6.144 21.0488 6.303 21.1688 6.417C21.2948 6.531 21.4568 6.588 21.6548 6.588C21.8468 6.588 22.0058 6.531 22.1318 6.417C22.2578 6.303 22.3208 6.144 22.3208 5.94C22.3208 5.73 22.2578 5.568 22.1318 5.454C22.0058 5.34 21.8468 5.283 21.6548 5.283ZM24.675 9V4.5H26.043L26.124 6.048L25.953 5.877C26.013 5.553 26.118 5.283 26.268 5.067C26.424 4.851 26.616 4.689 26.844 4.581C27.078 4.467 27.339 4.41 27.627 4.41C27.939 4.41 28.209 4.47 28.437 4.59C28.671 4.71 28.854 4.887 28.986 5.121C29.118 5.355 29.184 5.649 29.184 6.003V9H27.654V6.408C27.654 6.096 27.594 5.88 27.474 5.76C27.354 5.64 27.201 5.58 27.015 5.58C26.871 5.58 26.736 5.616 26.61 5.688C26.484 5.754 26.385 5.862 26.313 6.012C26.241 6.162 26.205 6.363 26.205 6.615V9H24.675ZM35.7202 9.09C35.4262 9.09 35.1652 9.024 34.9372 8.892C34.7152 8.76 34.5322 8.58 34.3882 8.352C34.2442 8.118 34.1512 7.854 34.1092 7.56L34.2532 7.371L34.1722 9H32.8312V2.592H34.3612V5.913L34.2172 5.697C34.3012 5.325 34.4722 5.019 34.7302 4.779C34.9882 4.533 35.3362 4.41 35.7742 4.41C36.1222 4.41 36.4312 4.503 36.7012 4.689C36.9772 4.875 37.1902 5.145 37.3402 5.499C37.4962 5.847 37.5742 6.27 37.5742 6.768C37.5742 7.254 37.4962 7.671 37.3402 8.019C37.1842 8.367 36.9682 8.634 36.6922 8.82C36.4162 9 36.0922 9.09 35.7202 9.09ZM35.1892 7.965C35.4532 7.965 35.6602 7.869 35.8102 7.677C35.9602 7.479 36.0352 7.17 36.0352 6.75C36.0352 6.33 35.9602 6.024 35.8102 5.832C35.6602 5.634 35.4532 5.535 35.1892 5.535C35.0152 5.535 34.8652 5.586 34.7392 5.688C34.6192 5.784 34.5262 5.922 34.4602 6.102C34.3942 6.282 34.3612 6.501 34.3612 6.759C34.3612 7.017 34.3942 7.236 34.4602 7.416C34.5262 7.596 34.6222 7.734 34.7482 7.83C34.8742 7.92 35.0212 7.965 35.1892 7.965ZM42.7459 4.5L41.1079 9C40.9399 9.474 40.7569 9.852 40.5589 10.134C40.3609 10.416 40.1269 10.62 39.8569 10.746C39.5869 10.872 39.2629 10.935 38.8849 10.935C38.6329 10.935 38.4019 10.908 38.1919 10.854C37.9819 10.8 37.7989 10.725 37.6429 10.629L37.9489 9.594C38.0569 9.672 38.1709 9.726 38.2909 9.756C38.4109 9.792 38.5639 9.81 38.7499 9.81C38.9239 9.81 39.0649 9.78 39.1729 9.72C39.2869 9.66 39.3769 9.546 39.4429 9.378L39.5599 9.099L39.0379 7.875L37.6879 4.5H39.3709L40.0639 7.065L40.2799 8.019L40.5319 7.029L41.2249 4.5H42.7459Z" fill="#141414"/>
<path d="M44.0462 7.452C44.3282 7.452 44.5472 7.524 44.7032 7.668C44.8652 7.812 44.9462 8.013 44.9462 8.271C44.9462 8.523 44.8652 8.721 44.7032 8.865C44.5472 9.009 44.3282 9.081 44.0462 9.081C43.7702 9.081 43.5512 9.009 43.3892 8.865C43.2272 8.721 43.1462 8.523 43.1462 8.271C43.1462 8.013 43.2272 7.812 43.3892 7.668C43.5512 7.524 43.7702 7.452 44.0462 7.452Z" fill="#FAB448"/>
<g clip-path="url(#clip0_263_166)">
<path d="M23.9079 30.7036H28.6864L24.7992 42.0755H19.143L15.2556 30.7036H20.0811L21.9786 39.0503L23.9079 30.7036Z" fill="#141414"/>
<path d="M31.2906 29.6978C30.3757 29.6978 29.7124 29.5462 29.3008 29.2429C28.9044 28.9239 28.7061 28.401 28.7061 27.674C28.7061 26.9471 28.9044 26.4262 29.3008 26.1111C29.7124 25.7921 30.3757 25.6331 31.2906 25.634C32.2055 25.6351 32.8688 25.794 33.2804 26.1111C33.6768 26.4291 33.8751 26.9526 33.8751 27.6815C33.8751 28.4104 33.6768 28.9333 33.2804 29.2504C32.8829 29.5496 32.2197 29.6987 31.2906 29.6978ZM33.5997 30.7037V42.0756H28.98V30.7037H33.5997Z" fill="#141414"/>
<path d="M35.1507 42.0711V30.7037H39.3118L39.4268 33.1141C39.7025 32.3166 40.2351 31.6283 40.9445 31.1525C41.6539 30.6767 42.5019 30.4391 43.3611 30.4756C44.5201 30.4756 45.4351 30.8168 46.1057 31.4993C46.7768 32.1659 47.1123 33.1289 47.1123 34.3881V42.0756H42.4911V35.5659C42.4911 34.9437 42.3837 34.5126 42.1701 34.2696C42.0648 34.1464 41.9312 34.0492 41.7805 33.9858C41.6294 33.9225 41.4655 33.8949 41.3016 33.9052C41.0884 33.8998 40.8767 33.9421 40.6827 34.0289C40.4886 34.1156 40.3174 34.2446 40.1819 34.4059C39.9065 34.7398 39.7693 35.2933 39.7703 36.0667V42.0711H35.1507Z" fill="#141414"/>
<path d="M50.9543 29.6978C50.0401 29.6978 49.3774 29.5462 48.9657 29.2429C48.5693 28.9239 48.3712 28.401 48.3712 27.674C48.3712 26.9471 48.5693 26.4262 48.9657 26.1111C49.3774 25.7921 50.0401 25.6331 50.9543 25.634C51.8843 25.634 52.5474 25.7931 52.9437 26.1111C53.3404 26.4291 53.5386 26.9526 53.5386 27.6815C53.5386 28.4084 53.3404 28.9314 52.9437 29.2504C52.5516 29.5496 51.888 29.6987 50.9543 29.6978ZM53.263 30.7037V42.0756H48.6451V30.7037H53.263Z" fill="#141414"/>
<path d="M64.4379 42.2193C63.2748 42.2193 62.3527 41.9172 61.6716 41.3127C60.991 40.6934 60.6505 39.6816 60.6505 38.2772V30.6638H65.2322V37.212C65.2322 37.7853 65.3383 38.1942 65.5502 38.4357C65.6672 38.5602 65.8116 38.6575 65.9723 38.7203C66.1334 38.7831 66.3062 38.8099 66.479 38.7986C66.6817 38.8049 66.8823 38.7627 67.0643 38.6757C67.2462 38.5887 67.4039 38.4595 67.523 38.2993C67.7957 37.9675 67.9318 37.4312 67.9318 36.6905V30.6638H72.5135V41.9927H68.4068L68.2948 39.7275C67.6138 41.3887 66.3283 42.2193 64.4379 42.2193Z" fill="#FAB448"/>
<path d="M78.1863 30.6638L79.8947 34.1305L81.641 30.6638H86.7448L82.8666 36.3053L86.8355 41.9927H81.6107L79.7948 38.3453L78.0048 41.9927H72.8602L76.8683 36.2372L72.9889 30.6638H78.1863Z" fill="#FAB448"/>
<path d="M90.033 41.9273C89.7729 41.9311 89.5152 41.8836 89.2741 41.7876C89.0335 41.6917 88.815 41.5492 88.6318 41.3688C88.4449 41.1911 88.2979 40.9775 88.1997 40.7414C88.1015 40.5053 88.0544 40.2518 88.0611 39.9969C88.0557 39.7464 88.1035 39.4975 88.2018 39.2661C88.3 39.0347 88.4461 38.826 88.6318 38.6532C88.815 38.473 89.0335 38.3308 89.2746 38.2351C89.5152 38.1393 89.7733 38.0921 90.033 38.0962C90.2861 38.0958 90.5372 38.1448 90.7711 38.2405C91.0051 38.3361 91.217 38.4765 91.3947 38.6532C91.5858 38.8234 91.7386 39.0309 91.8426 39.2623C91.9471 39.4937 92.0004 39.744 92 39.9969C91.9988 40.3433 91.8984 40.6825 91.7111 40.9762C91.5321 41.2611 91.2861 41.4999 90.9938 41.6725C90.7024 41.8402 90.3706 41.9283 90.033 41.9273Z" fill="#141414"/>
<path d="M58.181 47H-0.0756607V15H58.181V47ZM2.49671 44.5956H55.6084V17.4044H2.49671V44.5956Z" fill="#141414"/>
</g>
<defs>
<clipPath id="clip0_263_166">
<rect width="92" height="32" fill="white" transform="translate(0 15)"/>
</clipPath>
</defs>
</svg>
