<svg width="720" height="720" viewBox="0 0 720 720" fill="none" xmlns="http://www.w3.org/2000/svg">
<rect width="720" height="720" fill="#FAB448"/>
<g clip-path="url(#clip0_1181_1080)">
<path d="M305.181 356.778H355.961L314.652 480.447H254.546L213.237 356.778H264.516L284.68 447.548L305.181 356.778Z" fill="#141414"/>
<path d="M383.634 345.838C373.912 345.838 366.863 344.19 362.49 340.892C358.277 337.423 356.17 331.736 356.17 323.831C356.17 315.925 358.277 310.26 362.49 306.833C366.863 303.364 373.912 301.635 383.634 301.646C393.357 301.656 400.406 303.386 404.779 306.833C408.992 310.292 411.099 315.984 411.099 323.911C411.099 331.838 408.992 337.525 404.779 340.973C400.556 344.227 393.507 345.849 383.634 345.838ZM408.172 356.778V480.447H359.081V356.778H408.172Z" fill="#141414"/>
<path d="M424.654 480.398V356.778H468.873L470.095 382.991C473.025 374.318 478.684 366.832 486.223 361.658C493.762 356.484 502.773 353.901 511.903 354.297C524.22 354.297 533.943 358.008 541.071 365.429C548.2 372.679 551.764 383.152 551.764 396.846V480.447H502.657V409.654C502.657 402.888 501.515 398.199 499.248 395.557C498.128 394.217 496.709 393.16 495.105 392.471C493.502 391.783 491.759 391.482 490.018 391.594C487.752 391.535 485.502 391.995 483.441 392.939C481.379 393.883 479.559 395.285 478.119 397.039C475.193 400.67 473.735 406.69 473.745 415.1V480.398H424.654Z" fill="#141414"/>
<path d="M592.591 345.838C582.879 345.838 575.836 344.19 571.462 340.892C567.249 337.423 565.143 331.736 565.143 323.831C565.143 315.925 567.249 310.26 571.462 306.833C575.836 303.364 582.879 301.635 592.591 301.646C602.475 301.646 609.523 303.375 613.736 306.833C617.949 310.292 620.055 315.984 620.055 323.911C620.055 331.816 617.949 337.504 613.736 340.973C609.566 344.227 602.517 345.849 592.591 345.838ZM617.129 356.778V480.447H568.053V356.778H617.129Z" fill="#141414"/>
<path d="M669.388 534H50.3172V186H669.388V534ZM77.6528 507.852H642.052V212.148H77.6528V507.852Z" fill="#141414"/>
</g>
<defs>
<clipPath id="clip0_1181_1080">
<rect width="620" height="348" fill="white" transform="translate(50 186)"/>
</clipPath>
</defs>
</svg>
