<?xml version="1.0" encoding="utf-8"?>
<!-- Generator: Adobe Illustrator 25.4.1, SVG Export Plug-In . SVG Version: 6.00 Build 0)  -->
<svg version="1.1" id="Camada_1" xmlns="http://www.w3.org/2000/svg" xmlns:xlink="http://www.w3.org/1999/xlink" x="0px" y="0px"
	 viewBox="0 0 221 78" style="enable-background:new 0 0 221 78;" xml:space="preserve">
<style type="text/css">
	.st0{clip-path:url(#SVGID_00000052790450184907481210000008693174436136773764_);}
	.st1{fill:#141414;}
</style>
<g>
	<defs>
		<rect id="SVGID_1_" width="221" height="78"/>
	</defs>
	<clipPath id="SVGID_00000140724764784936350560000008126356126669705604_">
		<use xlink:href="#SVGID_1_"  style="overflow:visible;"/>
	</clipPath>
	<g style="clip-path:url(#SVGID_00000140724764784936350560000008126356126669705604_);">
		<path class="st1" d="M57.4,38.3h11.5L59.6,66H46l-9.3-27.7h11.6l4.6,20.3L57.4,38.3z"/>
		<path class="st1" d="M75.2,35.8c-2.2,0-3.8-0.4-4.8-1.1c-1-0.8-1.4-2.1-1.4-3.8c0-1.8,0.5-3,1.4-3.8c1-0.8,2.6-1.2,4.8-1.2
			c2.2,0,3.8,0.4,4.8,1.2c1,0.8,1.4,2.1,1.4,3.8s-0.5,3.1-1.4,3.8C79,35.5,77.4,35.8,75.2,35.8z M80.7,38.3V66H69.6V38.3H80.7z"/>
		<path class="st1" d="M84.4,66V38.3h10l0.3,5.9c0.7-1.9,1.9-3.6,3.6-4.8c1.7-1.2,3.7-1.7,5.8-1.6c2.8,0,5,0.8,6.6,2.5
			c1.6,1.6,2.4,4,2.4,7V66h-11.1V50.1c0-1.5-0.3-2.6-0.8-3.2c-0.3-0.3-0.6-0.5-0.9-0.7c-0.4-0.2-0.8-0.2-1.2-0.2
			c-0.5,0-1,0.1-1.5,0.3c-0.5,0.2-0.9,0.5-1.2,0.9c-0.7,0.8-1,2.2-1,4V66H84.4z"/>
		<path class="st1" d="M122.4,35.8c-2.2,0-3.8-0.4-4.8-1.1c-1-0.8-1.4-2.1-1.4-3.8c0-1.8,0.5-3,1.4-3.8c1-0.8,2.6-1.2,4.8-1.2
			c2.2,0,3.8,0.4,4.8,1.2c1,0.8,1.4,2.1,1.4,3.8c0,1.8-0.5,3-1.4,3.8C126.2,35.5,124.6,35.8,122.4,35.8z M127.9,38.3V66h-11.1V38.3
			H127.9z"/>
		<path class="st1" d="M154.8,66.3c-2.8,0-5-0.7-6.6-2.2c-1.6-1.5-2.5-4-2.5-7.4V38.2h11v16c0,1.4,0.3,2.4,0.8,3
			c0.3,0.3,0.6,0.5,1,0.7c0.4,0.2,0.8,0.2,1.2,0.2c0.5,0,1-0.1,1.4-0.3c0.4-0.2,0.8-0.5,1.1-0.9c0.7-0.8,1-2.1,1-3.9V38.2h11v27.6
			h-9.9l-0.3-5.5C162.4,64.3,159.3,66.3,154.8,66.3z"/>
		<path class="st1" d="M187.8,38.2l4.1,8.4l4.2-8.4h12.3l-9.3,13.8l9.5,13.9H196l-4.4-8.9l-4.3,8.9H175l9.6-14l-9.3-13.6H187.8z"/>
		<path class="st1" d="M216.3,65.6c-0.6,0-1.2-0.1-1.8-0.3c-0.6-0.2-1.1-0.6-1.5-1c-0.4-0.4-0.8-1-1-1.5c-0.2-0.6-0.3-1.2-0.3-1.8
			c0-0.6,0.1-1.2,0.3-1.8c0.2-0.6,0.6-1.1,1-1.5c0.4-0.4,1-0.8,1.5-1c0.6-0.2,1.2-0.3,1.8-0.3c0.6,0,1.2,0.1,1.8,0.4
			c0.6,0.2,1.1,0.6,1.5,1c0.5,0.4,0.8,0.9,1.1,1.5c0.3,0.6,0.4,1.2,0.4,1.8c0,0.8-0.2,1.7-0.7,2.4c-0.4,0.7-1,1.3-1.7,1.7
			C217.9,65.4,217.1,65.6,216.3,65.6z"/>
		<path class="st1" d="M139.8,78H-0.2V0h139.9V78z M6,72.1h127.6V5.9H6V72.1z"/>
	</g>
</g>
</svg>
