<svg width="221" height="78" viewBox="0 0 221 78" fill="none" xmlns="http://www.w3.org/2000/svg">
<g clip-path="url(#clip0_1103_2221)">
<path d="M57.4309 38.2778H68.9098L59.5719 65.9967H45.9847L36.6467 38.2778H48.2383L52.7965 58.6228L57.4309 38.2778Z" fill="#141414"/>
<path d="M75.1654 35.8258C72.9676 35.8258 71.3743 35.4563 70.3856 34.7172C69.4333 33.9396 68.9571 32.6649 68.9571 30.893C68.9571 29.1212 69.4333 27.8513 70.3856 27.0833C71.3743 26.3057 72.9676 25.9181 75.1654 25.9205C77.3633 25.923 78.9566 26.3105 79.9453 27.0833C80.8976 27.8585 81.3738 29.1344 81.3738 30.9111C81.3738 32.6878 80.8976 33.9625 79.9453 34.7353C78.9905 35.4647 77.3973 35.8282 75.1654 35.8258ZM80.7123 38.2778V65.9967H69.615V38.2778H80.7123Z" fill="#141414"/>
<path d="M84.438 65.9858V38.2778H94.4339L94.7101 44.1531C95.3724 42.2092 96.6517 40.5314 98.3559 39.3716C100.06 38.2119 102.097 37.6329 104.161 37.7217C106.945 37.7217 109.143 38.5534 110.754 40.217C112.366 41.842 113.172 44.1892 113.172 47.2586V65.9967H102.071V50.1295C102.071 48.6128 101.813 47.562 101.3 46.9697C101.047 46.6693 100.726 46.4324 100.364 46.278C100.001 46.1237 99.6073 46.0564 99.2137 46.0814C98.7015 46.0683 98.193 46.1714 97.7269 46.3829C97.2607 46.5944 96.8493 46.9087 96.5239 47.302C95.8624 48.1157 95.5328 49.465 95.5352 51.35V65.9858H84.438Z" fill="#141414"/>
<path d="M122.401 35.8258C120.205 35.8258 118.613 35.4563 117.624 34.7172C116.672 33.9396 116.196 32.6649 116.196 30.893C116.196 29.1212 116.672 27.8513 117.624 27.0833C118.613 26.3057 120.205 25.9181 122.401 25.9205C124.635 25.9205 126.228 26.3081 127.18 27.0833C128.133 27.8585 128.609 29.1344 128.609 30.9111C128.609 32.683 128.133 33.9577 127.18 34.7353C126.238 35.4647 124.644 35.8282 122.401 35.8258ZM127.947 38.2778V65.9967H116.854V38.2778H127.947Z" fill="#141414"/>
<path d="M154.791 66.3469C151.997 66.3469 149.782 65.6103 148.146 64.1369C146.511 62.6275 145.693 60.1611 145.693 56.7378V38.1803H156.699V54.1414C156.699 55.5389 156.954 56.5355 157.463 57.1242C157.744 57.4278 158.091 57.6649 158.477 57.818C158.864 57.9711 159.279 58.0363 159.694 58.0089C160.181 58.0242 160.663 57.9213 161.1 57.7092C161.537 57.4972 161.916 57.1823 162.202 56.7919C162.857 55.983 163.184 54.6758 163.184 52.8703V38.1803H174.19V65.7944H164.325L164.056 60.273C162.42 64.3223 159.332 66.3469 154.791 66.3469Z" fill="#FAB448"/>
<path d="M187.817 38.1803L191.921 46.6303L196.116 38.1803H208.376L199.06 51.9314L208.594 65.7944H196.043L191.681 56.9039L187.381 65.7944H175.023L184.651 51.7653L175.332 38.1803H187.817Z" fill="#FAB448"/>
<path d="M216.275 65.6356C215.65 65.6448 215.031 65.529 214.452 65.2951C213.874 65.0612 213.349 64.714 212.909 64.2742C212.46 63.841 212.107 63.3203 211.871 62.7448C211.635 62.1693 211.522 61.5514 211.538 60.9303C211.525 60.3197 211.64 59.7129 211.876 59.1489C212.112 58.5849 212.463 58.0761 212.909 57.655C213.349 57.2156 213.874 56.869 214.453 56.6357C215.031 56.4024 215.651 56.2873 216.275 56.2972C216.883 56.2962 217.486 56.4157 218.048 56.6489C218.61 56.882 219.119 57.2241 219.546 57.655C220.005 58.0697 220.372 58.5755 220.622 59.1396C220.873 59.7037 221.001 60.3137 221 60.9303C220.997 61.7746 220.756 62.6014 220.306 63.3172C219.876 64.0117 219.285 64.5937 218.583 65.0144C217.883 65.4233 217.086 65.6379 216.275 65.6356Z" fill="#141414"/>
<path d="M139.761 78H-0.181747V0H139.761V78ZM5.99753 72.1392H133.581V5.86083H5.99753V72.1392Z" fill="#141414"/>
</g>
<defs>
<clipPath id="clip0_1103_2221">
<rect width="221" height="78" fill="white"/>
</clipPath>
</defs>
</svg>
