<?xml version="1.0" encoding="utf-8"?>
<!-- Generator: Adobe Illustrator 25.4.1, SVG Export Plug-In . SVG Version: 6.00 Build 0)  -->
<svg version="1.1" id="Camada_1" xmlns="http://www.w3.org/2000/svg" xmlns:xlink="http://www.w3.org/1999/xlink" x="0px" y="0px"
	 viewBox="0 0 92 47" style="enable-background:new 0 0 92 47;" xml:space="preserve">
<style type="text/css">
	.st0{fill:#FFFFFF;}
	.st1{clip-path:url(#SVGID_00000181793029939661334740000003271069331727719050_);}
</style>
<path class="st0" d="M3.2,3.1c0.9,0,1.6,0.3,2.1,0.8C5.8,4.3,6.1,5.1,6.1,6S5.8,7.7,5.3,8.2C4.8,8.7,4.1,9,3.2,9H0.7V3.1H3.2z
	 M3,7.8c0.5,0,0.9-0.2,1.1-0.4C4.4,7.1,4.5,6.6,4.5,6S4.4,5,4.1,4.7C3.9,4.4,3.5,4.2,3,4.2H2.2v3.6H3z M9.2,9.1
	C8.7,9.1,8.3,9,7.9,8.8C7.5,8.6,7.3,8.4,7.1,8C6.9,7.7,6.8,7.2,6.8,6.8s0.1-0.9,0.3-1.3c0.2-0.3,0.5-0.6,0.8-0.8
	c0.4-0.2,0.8-0.3,1.2-0.3c0.5,0,0.9,0.1,1.2,0.3c0.3,0.2,0.6,0.4,0.8,0.8c0.2,0.3,0.3,0.7,0.3,1.1c0,0.1,0,0.2,0,0.3
	c0,0.1,0,0.2,0,0.3H7.8V6.3h2.9L9.9,6.6c0-0.4-0.1-0.6-0.2-0.8C9.6,5.6,9.4,5.5,9.1,5.5c-0.2,0-0.4,0-0.5,0.1C8.5,5.7,8.4,5.8,8.3,6
	C8.3,6.2,8.2,6.5,8.2,6.8c0,0.3,0,0.5,0.1,0.7c0.1,0.2,0.2,0.3,0.3,0.4C8.8,8,9,8,9.2,8c0.2,0,0.4,0,0.5-0.1
	c0.1-0.1,0.2-0.2,0.3-0.4l1.2,0.4c-0.1,0.3-0.2,0.5-0.4,0.7c-0.2,0.2-0.4,0.3-0.7,0.4C9.8,9,9.5,9.1,9.2,9.1z M14.1,9.1
	c-0.4,0-0.9-0.1-1.3-0.2c-0.4-0.1-0.7-0.4-1-0.6l0.7-0.8c0.1,0.2,0.3,0.4,0.6,0.5C13.5,8,13.7,8.1,14,8.1c0.2,0,0.3,0,0.5-0.1
	s0.2-0.1,0.2-0.3c0-0.1,0-0.2-0.1-0.2c-0.1-0.1-0.2-0.1-0.4-0.1l-0.6-0.1c-0.6-0.1-1-0.3-1.2-0.5C12.2,6.5,12,6.2,12,5.9
	c0-0.2,0.1-0.5,0.2-0.7c0.1-0.2,0.4-0.4,0.7-0.5c0.3-0.1,0.7-0.2,1.2-0.2c0.5,0,0.9,0.1,1.2,0.2c0.3,0.1,0.6,0.3,0.8,0.6L15.5,6
	c-0.1-0.2-0.3-0.3-0.6-0.4c-0.2-0.1-0.5-0.2-0.7-0.2c-0.1,0-0.3,0-0.4,0c-0.1,0-0.2,0.1-0.2,0.1c0,0-0.1,0.1-0.1,0.2
	c0,0.1,0,0.1,0.1,0.2c0.1,0.1,0.2,0.1,0.4,0.1l0.8,0.2c0.5,0.1,0.8,0.2,1,0.5c0.2,0.2,0.3,0.5,0.3,0.8c0,0.3-0.1,0.6-0.2,0.8
	c-0.2,0.2-0.4,0.4-0.7,0.6C15,9,14.6,9.1,14.1,9.1z M17.8,4c-0.3,0-0.5-0.1-0.7-0.2c-0.1-0.1-0.2-0.3-0.2-0.6c0-0.3,0.1-0.4,0.2-0.6
	c0.1-0.1,0.4-0.2,0.7-0.2c0.3,0,0.5,0.1,0.7,0.2c0.1,0.1,0.2,0.3,0.2,0.6c0,0.3-0.1,0.4-0.2,0.6C18.3,3.9,18.1,4,17.8,4z M18.5,4.5
	V9H17V4.5H18.5z M24,3.3l0.1,1c0,0-0.1,0-0.1,0c0,0-0.1,0-0.1,0c-0.3,0-0.5,0.1-0.6,0.2c-0.1,0.1-0.2,0.3-0.2,0.5l-0.5-0.2
	c0-0.2,0-0.5,0.1-0.7c0.1-0.2,0.2-0.4,0.4-0.6c0.2-0.1,0.4-0.2,0.7-0.2C23.9,3.3,23.9,3.3,24,3.3C23.9,3.3,24,3.3,24,3.3z M22.4,8
	c0.5,0,0.9,0.1,1.2,0.3c0.3,0.2,0.4,0.5,0.4,0.9c0,0.4-0.1,0.7-0.3,0.9c-0.2,0.2-0.5,0.4-0.9,0.5c-0.4,0.1-0.8,0.2-1.3,0.2
	c-0.8,0-1.4-0.1-1.8-0.3c-0.4-0.2-0.5-0.5-0.5-0.8c0-0.3,0.1-0.5,0.3-0.6s0.5-0.2,1-0.3l0,0.1c-0.4,0-0.6-0.2-0.8-0.3
	s-0.3-0.4-0.3-0.7s0.1-0.5,0.3-0.7c0.2-0.2,0.5-0.3,0.9-0.3l0.6,0.3h-0.1c-0.2,0-0.4,0.1-0.5,0.1s-0.1,0.1-0.1,0.2
	c0,0.1,0,0.2,0.1,0.2C20.7,8,20.8,8,21,8H22.4z M21.6,9.9c0.3,0,0.5,0,0.7-0.1c0.2,0,0.3-0.1,0.4-0.2c0.1-0.1,0.1-0.1,0.1-0.2
	s0-0.2-0.1-0.2c-0.1,0-0.2-0.1-0.4-0.1h-1.6c-0.1,0-0.2,0-0.3,0.1c-0.1,0.1-0.1,0.1-0.1,0.2c0,0.1,0.1,0.2,0.3,0.3
	C20.9,9.9,21.2,9.9,21.6,9.9z M21.7,4.4c0.5,0,0.8,0.1,1.2,0.2c0.3,0.1,0.6,0.3,0.7,0.5c0.2,0.2,0.3,0.5,0.3,0.8
	c0,0.3-0.1,0.6-0.3,0.8c-0.2,0.2-0.4,0.4-0.7,0.5c-0.3,0.1-0.7,0.2-1.2,0.2c-0.7,0-1.3-0.1-1.6-0.4c-0.4-0.3-0.5-0.6-0.5-1.1
	c0-0.3,0.1-0.6,0.3-0.8c0.2-0.2,0.4-0.4,0.7-0.5C20.8,4.5,21.2,4.4,21.7,4.4z M21.7,5.3c-0.2,0-0.4,0.1-0.5,0.2
	C21,5.6,21,5.7,21,5.9c0,0.2,0.1,0.4,0.2,0.5c0.1,0.1,0.3,0.2,0.5,0.2c0.2,0,0.4-0.1,0.5-0.2c0.1-0.1,0.2-0.3,0.2-0.5
	c0-0.2-0.1-0.4-0.2-0.5S21.8,5.3,21.7,5.3z M24.7,9V4.5H26L26.1,6L26,5.9c0.1-0.3,0.2-0.6,0.3-0.8c0.2-0.2,0.3-0.4,0.6-0.5
	c0.2-0.1,0.5-0.2,0.8-0.2c0.3,0,0.6,0.1,0.8,0.2c0.2,0.1,0.4,0.3,0.5,0.5c0.1,0.2,0.2,0.5,0.2,0.9v3h-1.5V6.4c0-0.3-0.1-0.5-0.2-0.6
	c-0.1-0.1-0.3-0.2-0.5-0.2c-0.1,0-0.3,0-0.4,0.1c-0.1,0.1-0.2,0.2-0.3,0.3s-0.1,0.4-0.1,0.6V9H24.7z M35.7,9.1
	c-0.3,0-0.6-0.1-0.8-0.2c-0.2-0.1-0.4-0.3-0.5-0.5c-0.1-0.2-0.2-0.5-0.3-0.8l0.1-0.2L34.2,9h-1.3V2.6h1.5v3.3l-0.1-0.2
	c0.1-0.4,0.3-0.7,0.5-0.9c0.3-0.2,0.6-0.4,1-0.4c0.3,0,0.7,0.1,0.9,0.3c0.3,0.2,0.5,0.5,0.6,0.8c0.2,0.3,0.2,0.8,0.2,1.3
	c0,0.5-0.1,0.9-0.2,1.3c-0.2,0.3-0.4,0.6-0.6,0.8C36.4,9,36.1,9.1,35.7,9.1z M35.2,8c0.3,0,0.5-0.1,0.6-0.3C36,7.5,36,7.2,36,6.8
	S36,6,35.8,5.8c-0.2-0.2-0.4-0.3-0.6-0.3c-0.2,0-0.3,0.1-0.5,0.2c-0.1,0.1-0.2,0.2-0.3,0.4c-0.1,0.2-0.1,0.4-0.1,0.7
	c0,0.3,0,0.5,0.1,0.7c0.1,0.2,0.2,0.3,0.3,0.4C34.9,7.9,35,8,35.2,8z M42.7,4.5L41.1,9c-0.2,0.5-0.4,0.9-0.5,1.1
	c-0.2,0.3-0.4,0.5-0.7,0.6c-0.3,0.1-0.6,0.2-1,0.2c-0.3,0-0.5,0-0.7-0.1c-0.2-0.1-0.4-0.1-0.5-0.2l0.3-1c0.1,0.1,0.2,0.1,0.3,0.2
	c0.1,0,0.3,0.1,0.5,0.1c0.2,0,0.3,0,0.4-0.1c0.1-0.1,0.2-0.2,0.3-0.3l0.1-0.3L39,7.9l-1.3-3.4h1.7l0.7,2.6l0.2,1l0.3-1l0.7-2.5H42.7
	z"/>
<path class="st0" d="M44,7.5c0.3,0,0.5,0.1,0.7,0.2c0.2,0.1,0.2,0.3,0.2,0.6c0,0.3-0.1,0.4-0.2,0.6C44.5,9,44.3,9.1,44,9.1
	c-0.3,0-0.5-0.1-0.7-0.2c-0.2-0.1-0.2-0.3-0.2-0.6c0-0.3,0.1-0.5,0.2-0.6C43.6,7.5,43.8,7.5,44,7.5z"/>
<g>
	<defs>
		<rect id="SVGID_1_" y="15" width="92" height="32"/>
	</defs>
	<clipPath id="SVGID_00000172430932638687104310000008251478208262699141_">
		<use xlink:href="#SVGID_1_"  style="overflow:visible;"/>
	</clipPath>
	<g style="clip-path:url(#SVGID_00000172430932638687104310000008251478208262699141_);">
		<path class="st0" d="M23.9,30.7h4.8l-3.9,11.4h-5.7l-3.9-11.4h4.8l1.9,8.3L23.9,30.7z"/>
		<path class="st0" d="M31.3,29.7c-0.9,0-1.6-0.2-2-0.5c-0.4-0.3-0.6-0.8-0.6-1.6c0-0.7,0.2-1.2,0.6-1.6c0.4-0.3,1.1-0.5,2-0.5
			c0.9,0,1.6,0.2,2,0.5c0.4,0.3,0.6,0.8,0.6,1.6c0,0.7-0.2,1.3-0.6,1.6C32.9,29.5,32.2,29.7,31.3,29.7z M33.6,30.7v11.4H29V30.7
			H33.6z"/>
		<path class="st0" d="M35.2,42.1V30.7h4.2l0.1,2.4c0.3-0.8,0.8-1.5,1.5-2s1.6-0.7,2.4-0.7c1.2,0,2.1,0.3,2.7,1c0.7,0.7,1,1.6,1,2.9
			v7.7h-4.6v-6.5c0-0.6-0.1-1.1-0.3-1.3c-0.1-0.1-0.2-0.2-0.4-0.3c-0.2-0.1-0.3-0.1-0.5-0.1c-0.2,0-0.4,0-0.6,0.1
			c-0.2,0.1-0.4,0.2-0.5,0.4c-0.3,0.3-0.4,0.9-0.4,1.7v6H35.2z"/>
		<path class="st0" d="M51,29.7c-0.9,0-1.6-0.2-2-0.5c-0.4-0.3-0.6-0.8-0.6-1.6c0-0.7,0.2-1.2,0.6-1.6c0.4-0.3,1.1-0.5,2-0.5
			c0.9,0,1.6,0.2,2,0.5c0.4,0.3,0.6,0.8,0.6,1.6c0,0.7-0.2,1.2-0.6,1.6C52.6,29.5,51.9,29.7,51,29.7z M53.3,30.7v11.4h-4.6V30.7
			H53.3z"/>
		<path class="st0" d="M64.4,42.2c-1.2,0-2.1-0.3-2.8-0.9c-0.7-0.6-1-1.6-1-3v-7.6h4.6v6.5c0,0.6,0.1,1,0.3,1.2
			c0.1,0.1,0.3,0.2,0.4,0.3c0.2,0.1,0.3,0.1,0.5,0.1c0.2,0,0.4,0,0.6-0.1c0.2-0.1,0.3-0.2,0.5-0.4c0.3-0.3,0.4-0.9,0.4-1.6v-6h4.6
			V42h-4.1l-0.1-2.3C67.6,41.4,66.3,42.2,64.4,42.2z"/>
		<path class="st0" d="M78.2,30.7l1.7,3.5l1.7-3.5h5.1l-3.9,5.6l4,5.7h-5.2l-1.8-3.6L78,42h-5.1l4-5.8L73,30.7H78.2z"/>
		<path class="st0" d="M90,41.9c-0.3,0-0.5,0-0.8-0.1c-0.2-0.1-0.5-0.2-0.6-0.4c-0.2-0.2-0.3-0.4-0.4-0.6c-0.1-0.2-0.1-0.5-0.1-0.7
			c0-0.3,0-0.5,0.1-0.7c0.1-0.2,0.2-0.4,0.4-0.6c0.2-0.2,0.4-0.3,0.6-0.4c0.2-0.1,0.5-0.1,0.8-0.1c0.3,0,0.5,0,0.7,0.1
			c0.2,0.1,0.4,0.2,0.6,0.4c0.2,0.2,0.3,0.4,0.4,0.6c0.1,0.2,0.2,0.5,0.2,0.7c0,0.3-0.1,0.7-0.3,1c-0.2,0.3-0.4,0.5-0.7,0.7
			C90.7,41.8,90.4,41.9,90,41.9z"/>
		<path class="st0" d="M58.2,47H-0.1V15h58.3V47z M2.5,44.6h53.1V17.4H2.5V44.6z"/>
	</g>
</g>
</svg>
