<?xml version="1.0" encoding="utf-8"?>
<!-- Generator: Adobe Illustrator 25.4.1, SVG Export Plug-In . SVG Version: 6.00 Build 0)  -->
<svg version="1.1" id="Camada_1" xmlns="http://www.w3.org/2000/svg" xmlns:xlink="http://www.w3.org/1999/xlink" x="0px" y="0px"
	 viewBox="0 0 720 720" style="enable-background:new 0 0 720 720;" xml:space="preserve">
<style type="text/css">
	.st0{fill:#141414;}
	.st1{clip-path:url(#SVGID_00000145030882331792846440000018005766843077489047_);}
	.st2{fill:#FFFFFF;}
	.st3{fill:#FAB448;}
</style>
<path class="st0" d="M595.1,703.9H124.9c-61.3,0-111-49.7-111-111V122.8c0-61.3,49.7-111,111-111h470.2c61.3,0,111,49.7,111,111
	v470.2C706,654.2,656.4,703.9,595.1,703.9z"/>
<g>
	<g>
		<defs>
			<rect id="SVGID_1_" x="42" y="247" width="635.9" height="226.1"/>
		</defs>
		<clipPath id="SVGID_00000103230381324524950660000013677218813769054351_">
			<use xlink:href="#SVGID_1_"  style="overflow:visible;"/>
		</clipPath>
		<g style="clip-path:url(#SVGID_00000103230381324524950660000013677218813769054351_);">
			<path class="st2" d="M207.3,357.9h33l-26.8,80.3h-39l-26.9-80.3h33.4l13.2,58.9L207.3,357.9z"/>
			<path class="st2" d="M258.3,350.8c-6.3,0-10.9-1.1-13.8-3.3c-2.7-2.2-4.1-6-4.1-11.1c0-5.2,1.4-8.8,4.1-11.1
				c2.8-2.2,7.5-3.4,13.8-3.4c6.3,0,10.9,1.2,13.8,3.4c2.7,2.2,4.1,5.9,4.1,11.1c0,5.2-1.4,8.8-4.1,11.1
				C269.3,349.8,264.7,350.8,258.3,350.8z M274.3,357.9v80.3h-31.9v-80.3H274.3z"/>
			<path class="st2" d="M285,438.2v-80.3h28.7l0.8,17.1c1.9-5.7,5.6-10.5,10.5-13.9c4.9-3.4,10.7-5.1,16.7-4.7
				c8,0,14.3,2.4,18.9,7.3c4.6,4.7,6.9,11.5,6.9,20.4v54.3h-31.9v-46c0-4.4-0.7-7.5-2.2-9.2c-0.7-0.8-1.7-1.6-2.7-2
				s-2.2-0.6-3.3-0.5c-1.5,0-2.9,0.2-4.3,0.8c-1.4,0.6-2.5,1.5-3.5,2.6c-1.9,2.3-2.8,6.3-2.8,11.7v42.4L285,438.2L285,438.2z"/>
			<path class="st2" d="M394.2,350.8c-6.3,0-10.9-1.1-13.8-3.3c-2.7-2.2-4.1-6-4.1-11.1c0-5.2,1.4-8.8,4.1-11.1
				c2.8-2.2,7.5-3.4,13.8-3.4c6.4,0,11.1,1.2,13.8,3.4c2.7,2.2,4.1,5.9,4.1,11.1c0,5.2-1.4,8.8-4.1,11.1
				C405.3,349.8,400.7,350.8,394.2,350.8z M410.2,357.9v80.3h-31.9v-80.3H410.2z"/>
			<path class="st3" d="M487.5,439.3c-8,0-14.4-2.1-19.2-6.4c-4.7-4.4-7.1-11.5-7.1-21.5v-53.8h31.7v46.3c0,4,0.7,6.9,2.2,8.6
				c0.8,0.8,1.8,1.6,2.9,2c1.2,0.4,2.3,0.6,3.5,0.5c1.4,0,2.7-0.2,4-0.8c1.3-0.6,2.3-1.6,3.2-2.6c1.9-2.3,2.8-6.1,2.8-11.4v-42.6
				h31.7v80h-28.4l-0.7-16C509.5,433.4,500.5,439.3,487.5,439.3z"/>
			<path class="st3" d="M582.5,357.6l11.8,24.5l12.1-24.5h35.3l-26.8,39.9l27.5,40.2h-36.1l-12.5-25.8l-12.4,25.8h-35.6l27.7-40.6
				l-26.8-39.4h36V357.6z"/>
			<path class="st2" d="M664.4,437.3c-1.8,0-3.6-0.3-5.3-0.9s-3.2-1.7-4.4-2.9c-1.3-1.3-2.3-2.7-2.9-4.4c-0.6-1.7-1.1-3.5-0.9-5.3
				c0-1.8,0.3-3.6,0.9-5.2c0.6-1.7,1.7-3.2,2.9-4.3c1.3-1.3,2.7-2.3,4.4-2.9c1.7-0.6,3.5-1.1,5.3-0.9c1.8,0,3.5,0.3,5.1,1.1
				c1.6,0.6,3.1,1.7,4.3,2.9c1.4,1.2,2.4,2.6,3.1,4.3c0.6,1.7,1.1,3.4,1.1,5.2c0,2.4-0.7,4.8-2,6.9c-1.3,2-2.9,3.7-4.9,4.9
				C669,436.6,666.7,437.3,664.4,437.3z"/>
			<path class="st2" d="M444.2,473H41.5V247h402.7V473z M59.3,456.1h367.1V263.9H59.3V456.1z"/>
		</g>
	</g>
</g>
</svg>
